<svg id="Layer_1" data-name="Layer 1" xmlns="http://www.w3.org/2000/svg" viewBox="0 0 255.86 274.17"><defs><style>.cls-1{fill:#030303;}.cls-2{fill:#090909;}</style></defs><title>note coffee</title><path class="cls-1" d="M235.67,367.16c.24-2.78.69-5.5.66-8.23-.25-26.82-.46-53.64-1-80.46-.13-6.45,2.44-10.17,8.17-12.7a115.81,115.81,0,0,1,35.94-9.92c13.89-1.33,27.87-2.6,41.8-2.43,18.15.22,36.22,2.45,53.52,8.55,4.52,1.59,8.76,4,13.05,6.18s4.41,6.77,5.12,10.79c1.46,8.37,1.37,8.39,9.7,9.21,1.66.16,3.32.27,5,.3,12.21.24,16.52,4.41,17.64,16,1.27,13.13,0,26.54-.74,39.8-.38,6.6-5,10.44-11.36,11.49-6,1-12.17,1.41-18.95,2.15-.1,1.86-.23,4.09-.34,6.33-.64,12.28-.8,24.61-2,36.83-1.1,11-7.55,19.36-16,26.14-13,10.47-27.75,14.74-44.33,12.31a25.17,25.17,0,0,1-21.69-25.31c0-22.94,18.54-43.26,43.17-46.89,5.36-.8,10.95-.38,16.41-.15s6.06,0,6-5.39c-.08-15.49-.24-31-.25-46.47,0-5.16.43-10.32.55-15.47.16-6.68-.4-7-7.17-5.88-11.32,1.85-22.62,3.95-34,5.16a225.4,225.4,0,0,1-72-4.25c-7.2-1.55-8-.73-8.09,6.72-.25,30.48-1,61-.65,91.43.29,21.74-17,37.12-32.77,43.31-8.88,3.5-18.13,4-27.52,2.92-16.06-1.78-26.28-15.88-23-31.72,4.33-20.88,21.73-36.73,45-40.23C221.89,366.36,228.44,367.16,235.67,367.16Zm158-22.08c5.17-.29,9.14-.23,13-.8,4.11-.6,7-2.71,7-7.54.05-8.46.68-16.92.47-25.37-.24-9.84-3.33-12.28-13.26-11.62-.83.05-1.65.32-2.47.33-2.94,0-4.11,1.69-4.26,4.36-.19,3.48-.44,7-.46,10.44C393.59,324.62,393.63,334.36,393.63,345.08Z" transform="translate(-169.93 -166.02)"/><path class="cls-2" d="M329.29,237.23c-4.42.29-5.53-2.08-6.37-5-3.28-11.42-1.05-22.06,4.49-32.21,5-9.1,7.94-18.58,6.51-29.14-.18-1.32,1-2.83,1.53-4.26,1.38.92,3.31,1.51,4,2.79,3.68,6.47,3.17,13.63,1.73,20.42a76.09,76.09,0,0,1-6.15,17.24c-3.63,7.49-6.25,15-5.52,23.45A54.23,54.23,0,0,1,329.29,237.23Z" transform="translate(-169.93 -166.02)"/><path class="cls-2" d="M299.91,236.63c-4.42.29-5.53-2.08-6.37-5-3.27-11.42-1.05-22.05,4.49-32.21,5-9.1,7.94-18.58,6.51-29.13-.18-1.33,1-2.84,1.53-4.26,1.38.91,3.32,1.51,4.05,2.79,3.67,6.46,3.16,13.62,1.73,20.42a76.29,76.29,0,0,1-6.16,17.24c-3.62,7.49-6.24,15-5.52,23.44A54.39,54.39,0,0,1,299.91,236.63Z" transform="translate(-169.93 -166.02)"/></svg>